<svg xmlns="http://www.w3.org/2000/svg" viewBox="0 0 352.88 115.29"><defs><style>.cls-1,.cls-2{fill:#fff;}.cls-1{fill-rule:evenodd;}</style></defs><title>Datový zdroj 1</title><g id="Vrstva_2" data-name="Vrstva 2"><g id="Vrstva_1-2" data-name="Vrstva 1"><g id="Vrstva_2-2" data-name="Vrstva 2"><path class="cls-1" d="M352.76,92.56v2.75H337.62V106h-3.2V95.31H319.31V92.56ZM221,97.37a4.6,4.6,0,0,1-4.61,4.74H190.72V106h-3.34V92.56h29A4.66,4.66,0,0,1,221,97.37Zm-3,0a2,2,0,0,0-2-2H190.7v4.06H216a2,2,0,0,0,2-2ZM265,95.94v6.69a3.37,3.37,0,0,1-3.37,3.37H234.78a3.37,3.37,0,0,1-3.37-3.37V95.94a3.38,3.38,0,0,1,3.37-3.38h26.89A3.38,3.38,0,0,1,265,95.94Zm-3.34.87a1.51,1.51,0,0,0-1.51-1.5H236.26a1.51,1.51,0,0,0-1.51,1.5v5a1.51,1.51,0,0,0,1.51,1.5h23.93a1.51,1.51,0,0,0,1.51-1.5v-5ZM147.53,95.16H172.6a1.52,1.52,0,0,1,1.52,1.51H177a4.11,4.11,0,0,0-4.1-4.11H147.14a3.9,3.9,0,0,0-3.91,3.93,4,4,0,0,0,4,3.94h25.31a1.48,1.48,0,1,1,0,3h-25a1.43,1.43,0,0,1-1.48-1.33h-2.79a4,4,0,0,0,3.93,3.94h25.69a4.11,4.11,0,0,0,4.11-4.09,4.2,4.2,0,0,0-4.22-4.09H147.53a1.34,1.34,0,1,1,0-2.67ZM308.9,97.29a4.76,4.76,0,0,1-1.51,3.44,2.66,2.66,0,0,1,1.49,2.43V106h-3.14v-2.22a1.73,1.73,0,0,0-1.64-1.72H278.79V106h-3.35V92.56h28.63a4.72,4.72,0,0,1,4.83,4.73Zm-3,0a1.91,1.91,0,0,0-1.95-2H278.76v4H304a2,2,0,0,0,1.95-2Z"/><path class="cls-2" d="M143.22,37.84a4,4,0,0,1,4.25-3.78h8.42c2.4,0,4.34,1.64,4.34,3.78V75.25A4.11,4.11,0,0,1,155.89,79h-8.42a4,4,0,0,1-4.25-3.71V37.84Z"/><path class="cls-2" d="M143.22,21.74A4,4,0,0,1,147.47,18h8.42c2.4,0,4.34,1.64,4.34,3.78v2.8a4.11,4.11,0,0,1-4.34,3.78h-8.42a4,4,0,0,1-4.25-3.7V21.74Z"/><path class="cls-2" d="M165.78,57.08c0-15.14,9.8-22.87,24.23-22.87a43.54,43.54,0,0,1,13,2.06V23.93a2.59,2.59,0,0,1,2.78-2.47h10.08a2.59,2.59,0,0,1,2.77,2.47V76.57A2.59,2.59,0,0,1,215.91,79h-8.7a2.59,2.59,0,0,1-2.77-2.47V75.33a28.64,28.64,0,0,1-15.81,4.53C175.49,79.86,165.78,72.13,165.78,57.08Zm37.27,9.45v-21a40.11,40.11,0,0,0-9.8-1.64c-8.32,0-11.38,4-11.38,13.16s3.06,13.07,10.45,13.07C195.65,70.15,199.82,68.34,203.05,66.53Z"/><path class="cls-2" d="M239.21,61.27c.65,6.58,4,9.46,11.56,9.46,3.89,0,7.31-1,8.88-2.72a6.69,6.69,0,0,1,5.18-2.13h6.75a2.59,2.59,0,0,1,2.78,2.46c0,8.56-9.9,11.52-24.69,11.52-16.47,0-26.36-7.9-26.36-22.78s10-22.87,26.36-22.87S276,42,276,56.5v2.3a2.59,2.59,0,0,1-2.77,2.47Zm-.09-8.47h21c-.27-6.17-3.6-9.46-10.45-9.46C243,43.34,239.49,46.63,239.12,52.8Z"/><path class="cls-2" d="M296.18,46.05A6.63,6.63,0,0,1,291,48.19h-6.76a2.59,2.59,0,0,1-2.77-2.47c0-8.55,9.62-11.51,24.6-11.51,13.32,0,23.77,4.93,23.77,17.52V76.57A2.59,2.59,0,0,1,327.08,79h-8.7a2.59,2.59,0,0,1-2.77-2.47V75.34a29.3,29.3,0,0,1-16.37,4.52c-12.12,0-21.36-4.85-21.36-14.15s9.24-14,21.36-14h15c0-6.42-3.05-8.39-9.25-8.39C301.18,43.34,297.76,44.33,296.18,46.05Zm18,21.06V60.86H300.35c-4.35,0-6.85,2.14-6.85,4.85,0,2.88,2.5,5,7.31,5A27.57,27.57,0,0,0,314.22,67.11Z"/><path class="cls-2" d="M340,79a2.59,2.59,0,0,1-2.77-2.47V23.93A2.59,2.59,0,0,1,340,21.46h10.09a2.59,2.59,0,0,1,2.77,2.47V76.57A2.59,2.59,0,0,1,350.11,79Z"/><path class="cls-2" d="M6.53,82.59c-.35-.94-.85-2.19-1.16-3.14-.64-1.27-1.5-3-2.08-4.27.29,1,.67,2.38,1,3.38.66,1.22,1.54,2.84,2.24,4Z"/><path class="cls-2" d="M5.07,78.5C.25,59.34,10.17,47.47,33,45.07c.1-1.86.24-4.34.37-6.19C3.13,43,.19,60.32,3,74.16c.59,1.31,1.39,3.06,2,4.34Z"/><path class="cls-2" d="M8.44,86.52c-.45-.89-1.07-2.08-1.49-3-.71-1.18-1.65-2.74-2.29-4,.4,1,.91,2.3,1.35,3.26.71,1.12,1.67,2.61,2.43,3.68Z"/><path class="cls-2" d="M41.45,44.77c1.6,0,3.72.08,5.31.15.21-1.9.48-4.43.69-6.32-1.63-.05-3.82-.12-5.46-.13-.16,1.89-.38,4.41-.54,6.3Z"/><path class="cls-2" d="M34.77,44.93c1.53,0,3.56-.15,5.09-.16.14-1.89.33-4.41.5-6.29-1.56.06-3.63.12-5.18.23-.14,1.87-.31,4.35-.41,6.22Z"/><path class="cls-2" d="M6,83.33c-2.36-5.32-21.13-51.85,46.2-48,.26-1.82.62-4.26.9-6.09C-9.63,26,.16,67.11,2.75,75.38L3.31,77c.41,1.08.94,2.53,1.38,3.6.4.81.89,1.9,1.33,2.69Z"/><path class="cls-2" d="M61.16,36.06c1.66.21,3.89.48,5.55.71.25-1.77.6-4.14.85-5.92-1.65-.24-3.85-.57-5.5-.78l-.9,6Z"/><path class="cls-2" d="M53.81,35.39c1.69.15,3.95.32,5.64.49l.9-6c-1.69-.17-3.94-.41-5.63-.55-.28,1.82-.64,4.26-.91,6.08Z"/><path class="cls-2" d="M43.16,25.64c.34-1.63.79-3.81,1.17-5.44C9.45,22.11,1,39.8.09,54.31L0,57.39a58.17,58.17,0,0,0,.64,8.85C-3,34.54,21.77,26.67,43.16,25.64Z"/><path class="cls-2" d="M52.12,25.8c1.7.14,4,.31,5.65.48.27-1.61.62-3.75.91-5.36-1.67-.16-3.9-.4-5.57-.52-.31,1.62-.72,3.77-1,5.4Z"/><path class="cls-2" d="M44.82,25.6c1.67,0,3.9,0,5.57.1.3-1.62.7-3.79,1-5.4-1.63-.05-3.82-.13-5.45-.12-.36,1.62-.83,3.79-1.15,5.42Z"/><path class="cls-2" d="M34,18.44c.49-1.4,1.15-3.27,1.71-4.64C18.23,17.37,8.52,24.66,3.26,38.18l-.1.28c-1.7,5.69-1.77,5.91-2.35,9.32l-.06.36C3.06,36.92,8.94,23.4,34,18.44Z"/><path class="cls-2" d="M42.47,17.47c1.58,0,3.7-.13,5.29-.13.42-1.36,1-3.17,1.44-4.51-1.55,0-3.62,0-5.17.09-.49,1.36-1.14,3.17-1.56,4.55Z"/><path class="cls-2" d="M35.79,18.15c1.52-.18,3.56-.45,5.09-.58.46-1.37,1.06-3.21,1.59-4.56-1.5.15-3.5.32-5,.52-.52,1.38-1.22,3.21-1.68,4.62Z"/><path class="cls-2" d="M39.79,11c.62-1.1,1.44-2.58,2.13-3.63C26.59,9.52,18,14.06,10.38,24.13c-1,1.62-2.4,3.77-3.33,5.44L5.39,32.89c2.9-5.55,9.7-18.55,34.4-21.87Z"/><path class="cls-2" d="M48,10.53c1.54,0,3.6,0,5.14.11.5-1.06,1.16-2.48,1.74-3.51-1.5,0-3.48-.14-5-.15-.59,1-1.38,2.46-1.9,3.55Z"/><path class="cls-2" d="M41.43,10.85c1.5-.09,3.51-.25,5-.29C47,9.48,47.76,8,48.4,7c-1.47.07-3.42.13-4.88.24-.65,1.08-1.52,2.51-2.09,3.62Z"/><path class="cls-2" d="M38.86,6.2c.81-.83,1.89-1.95,2.77-2.71C36.24,4.55,28.86,6,21.18,12.28c-2,1.84-4.65,4.39-6.53,6.38l-.73.85A40,40,0,0,1,35.62,6.87a12,12,0,0,0,3.24-.67Z"/><path class="cls-2" d="M46.6,5.35c1.44,0,3.37-.11,4.82-.1.69-.78,1.6-1.82,2.36-2.53-1.4,0-3.26,0-4.65,0-.78.76-1.83,1.77-2.53,2.6Z"/><path class="cls-2" d="M40.45,6c1.4-.16,3.28-.4,4.69-.51.75-.81,1.75-1.89,2.58-2.62-1.37.12-3.19.27-4.55.44-.84.78-2,1.83-2.72,2.69Z"/><path class="cls-2" d="M54.56,1.55c.85-.48,2-1.14,2.87-1.53-7.24-.12-14,.09-22.79,3.81-1.42.71-3.34,1.63-4.73,2.4C28.67,7,27,8,25.78,8.8c4-2.44,12.31-7.53,27.73-7.27a4.63,4.63,0,0,0,1.05,0Z"/><path class="cls-2" d="M62.07,2.1c1.35.19,3.16.43,4.51.65a22.58,22.58,0,0,1,2.28-1.33c-1.28-.22-3-.53-4.27-.72a24.82,24.82,0,0,0-2.52,1.4Z"/><path class="cls-2" d="M56.11,1.6c1.37.1,3.2.21,4.57.34A28.27,28.27,0,0,1,63.27.52C62,.39,60.23.2,58.92.11c-.86.42-2,1-2.81,1.49Z"/><path class="cls-2" d="M111.62,32.71c.35.94.85,2.18,1.16,3.14.65,1.27,1.5,3,2.09,4.26-.3-1-.68-2.37-1-3.38-.66-1.21-1.53-2.84-2.24-4Z"/><path class="cls-2" d="M113.08,36.8c4.83,19.15-5.09,31-27.93,33.43-.1,1.86-.23,4.33-.37,6.19C115,72.34,118,55,115.11,41.13c-.59-1.31-1.38-3.05-2-4.33Z"/><path class="cls-2" d="M109.71,28.77c.46.9,1.08,2.08,1.5,3,.7,1.17,1.64,2.74,2.29,3.94-.4-1-.92-2.3-1.35-3.26-.72-1.11-1.67-2.6-2.44-3.68Z"/><path class="cls-2" d="M76.7,70.52c-1.59,0-3.72-.08-5.31-.15-.21,1.9-.48,4.43-.69,6.33,1.64,0,3.82.11,5.46.12.16-1.89.38-4.41.54-6.3Z"/><path class="cls-2" d="M83.38,70.36c-1.52.06-3.56.15-5.09.16-.14,1.89-.33,4.41-.49,6.29,1.55-.06,3.63-.12,5.18-.23.13-1.87.3-4.35.4-6.22Z"/><path class="cls-2" d="M112.14,32c2.36,5.31,21.12,51.84-46.2,48-.27,1.83-.62,4.27-.9,6.09,62.75,3.19,53-37.91,50.36-46.19l-.55-1.66c-.41-1.08-.94-2.53-1.39-3.6-.39-.81-.89-1.9-1.32-2.68Z"/><path class="cls-2" d="M57,79.23c-1.66-.21-3.88-.48-5.54-.71-.26,1.78-.6,4.15-.85,5.93,1.65.23,3.84.56,5.5.77.27-1.79.62-4.19.89-6Z"/><path class="cls-2" d="M64.34,79.9c-1.69-.14-3.94-.32-5.63-.49-.27,1.81-.64,4.21-.91,6,1.69.17,3.94.41,5.63.55.28-1.82.65-4.25.91-6.08Z"/><path class="cls-2" d="M75,89.65c-.34,1.64-.79,3.82-1.18,5.44,34.88-1.9,43.31-19.6,44.25-34.1l.08-3.09a56.85,56.85,0,0,0-.64-8.85c3.61,31.7-21.13,39.58-42.51,40.6Z"/><path class="cls-2" d="M66,89.49c-1.7-.13-4-.31-5.66-.48-.26,1.61-.62,3.76-.9,5.36,1.67.16,3.89.41,5.56.53.31-1.62.72-3.78,1-5.41Z"/><path class="cls-2" d="M73.33,89.69c-1.67,0-3.9,0-5.57-.1-.3,1.62-.69,3.79-1,5.41,1.64,0,3.82.12,5.46.12.35-1.63.83-3.79,1.14-5.43Z"/><path class="cls-2" d="M84.14,96.85c-.5,1.4-1.15,3.27-1.71,4.64,17.49-3.56,27.2-10.85,32.47-24.37l.09-.28a57.84,57.84,0,0,0,2.36-9.33l.06-.36c-2.32,11.22-8.2,24.74-33.27,29.7Z"/><path class="cls-2" d="M75.69,97.83c-1.59,0-3.71.12-5.3.12-.41,1.36-1,3.17-1.43,4.51,1.55,0,3.62,0,5.17-.09.48-1.35,1.13-3.17,1.56-4.54Z"/><path class="cls-2" d="M82.37,97.15c-1.53.18-3.56.44-5.09.57-.46,1.37-1.07,3.21-1.6,4.56,1.5-.15,3.51-.32,5-.52.53-1.38,1.23-3.21,1.69-4.61Z"/><path class="cls-2" d="M78.36,104.27c-.61,1.1-1.43,2.58-2.13,3.64,15.33-2.14,23.88-6.67,31.54-16.74,1-1.62,2.4-3.77,3.33-5.44l1.67-3.33C109.86,88,103.06,101,78.36,104.27Z"/><path class="cls-2" d="M70.16,104.77c-1.55,0-3.6,0-5.14-.12-.5,1.06-1.17,2.49-1.74,3.51,1.49.06,3.48.15,5,.16.59-1.06,1.38-2.47,1.91-3.55Z"/><path class="cls-2" d="M76.73,104.44c-1.51.1-3.51.25-5,.3-.56,1.08-1.31,2.53-1.95,3.56,1.46-.06,3.42-.13,4.88-.24.65-1.07,1.51-2.5,2.09-3.62Z"/><path class="cls-2" d="M79.29,109.09c-.81.83-1.89,2-2.77,2.72,5.39-1.07,12.77-2.53,20.45-8.8,2-1.84,4.65-4.39,6.54-6.38l.72-.84a40.11,40.11,0,0,1-21.7,12.63,12.45,12.45,0,0,0-3.24.67Z"/><path class="cls-2" d="M71.56,110c-1.45,0-3.38.1-4.83.09-.68.78-1.59,1.83-2.35,2.54,1.39,0,3.25,0,4.65,0,.78-.76,1.82-1.78,2.53-2.6Z"/><path class="cls-2" d="M77.71,109.34c-1.41.17-3.28.4-4.69.52-.76.8-1.76,1.88-2.58,2.62,1.37-.13,3.19-.27,4.55-.44.84-.79,2-1.84,2.72-2.7Z"/><path class="cls-2" d="M63.59,113.75c-.85.48-2,1.13-2.87,1.52,7.24.12,14-.08,22.79-3.81,1.43-.71,3.35-1.62,4.74-2.4,1.24-.77,2.92-1.75,4.13-2.57-4,2.45-12.32,7.54-27.74,7.27a4.61,4.61,0,0,0-1,0Z"/></g></g></g></svg>